{"header":{"formatType":0,"trackCount":1,"ticksPerBeat":480},"tracks":[[{"deltaTime":0,"type":"meta","subtype":"trackName","text":"Yamaha Grand Piano"},{"deltaTime":0,"type":"meta","subtype":"instrumentName","text":"Steinway Grand Piano"},{"deltaTime":0,"type":"meta","subtype":"keySignature","key":0,"scale":0},{"deltaTime":0,"type":"meta","subtype":"timeSignature","numerator":3,"denominator":4,"metronome":24,"thirtyseconds":8},{"deltaTime":0,"type":"meta","subtype":"smpteOffset","frameRate":25,"hour":1,"min":0,"sec":0,"frame":0,"subframe":0},{"deltaTime":0,"type":"meta","subtype":"setTempo","microsecondsPerBeat":800000},{"deltaTime":0,"channel":0,"type":"channel","noteNumber":66,"velocity":80,"subtype":"noteOn"},{"deltaTime":240,"channel":0,"type":"channel","noteNumber":70,"velocity":80,"subtype":"noteOn"},{"deltaTime":0,"channel":0,"type":"channel","subtype":"noteOff","noteNumber":66,"velocity":0},{"deltaTime":240,"channel":0,"type":"channel","noteNumber":77,"velocity":80,"subtype":"noteOn"},{"deltaTime":0,"channel":0,"type":"channel","subtype":"noteOff","noteNumber":70,"velocity":0},{"deltaTime":240,"channel":0,"type":"channel","noteNumber":80,"velocity":80,"subtype":"noteOn"},{"deltaTime":0,"channel":0,"type":"channel","subtype":"noteOff","noteNumber":77,"velocity":0},{"deltaTime":240,"channel":0,"type":"channel","noteNumber":77,"velocity":80,"subtype":"noteOn"},{"deltaTime":0,"channel":0,"type":"channel","subtype":"noteOff","noteNumber":80,"velocity":0},{"deltaTime":240,"channel":0,"type":"channel","noteNumber":70,"velocity":80,"subtype":"noteOn"},{"deltaTime":0,"channel":0,"type":"channel","subtype":"noteOff","noteNumber":77,"velocity":0},{"deltaTime":240,"channel":0,"type":"channel","noteNumber":61,"velocity":80,"subtype":"noteOn"},{"deltaTime":0,"channel":0,"type":"channel","subtype":"noteOff","noteNumber":70,"velocity":0},{"deltaTime":240,"channel":0,"type":"channel","noteNumber":68,"velocity":80,"subtype":"noteOn"},{"deltaTime":0,"channel":0,"type":"channel","subtype":"noteOff","noteNumber":61,"velocity":0},{"deltaTime":240,"channel":0,"type":"channel","noteNumber":75,"velocity":80,"subtype":"noteOn"},{"deltaTime":0,"channel":0,"type":"channel","subtype":"noteOff","noteNumber":68,"velocity":0},{"deltaTime":240,"channel":0,"type":"channel","noteNumber":72,"velocity":80,"subtype":"noteOn"},{"deltaTime":0,"channel":0,"type":"channel","subtype":"noteOff","noteNumber":75,"velocity":0},{"deltaTime":240,"channel":0,"type":"channel","noteNumber":68,"velocity":80,"subtype":"noteOn"},{"deltaTime":0,"channel":0,"type":"channel","subtype":"noteOff","noteNumber":72,"velocity":0},{"deltaTime":240,"channel":0,"type":"channel","noteNumber":72,"velocity":80,"subtype":"noteOn"},{"deltaTime":0,"channel":0,"type":"channel","subtype":"noteOff","noteNumber":68,"velocity":0},{"deltaTime":240,"channel":0,"type":"channel","noteNumber":58,"velocity":80,"subtype":"noteOn"},{"deltaTime":0,"channel":0,"type":"channel","subtype":"noteOff","noteNumber":72,"velocity":0},{"deltaTime":240,"channel":0,"type":"channel","noteNumber":65,"velocity":80,"subtype":"noteOn"},{"deltaTime":0,"channel":0,"type":"channel","subtype":"noteOff","noteNumber":58,"velocity":0},{"deltaTime":240,"channel":0,"type":"channel","noteNumber":70,"velocity":80,"subtype":"noteOn"},{"deltaTime":0,"channel":0,"type":"channel","subtype":"noteOff","noteNumber":65,"velocity":0},{"deltaTime":240,"channel":0,"type":"channel","noteNumber":73,"velocity":80,"subtype":"noteOn"},{"deltaTime":0,"channel":0,"type":"channel","subtype":"noteOff","noteNumber":70,"velocity":0},{"deltaTime":240,"channel":0,"type":"channel","noteNumber":70,"velocity":80,"subtype":"noteOn"},{"deltaTime":0,"channel":0,"type":"channel","subtype":"noteOff","noteNumber":73,"velocity":0},{"deltaTime":240,"channel":0,"type":"channel","noteNumber":65,"velocity":80,"subtype":"noteOn"},{"deltaTime":0,"channel":0,"type":"channel","subtype":"noteOff","noteNumber":70,"velocity":0},{"deltaTime":240,"channel":0,"type":"channel","noteNumber":58,"velocity":80,"subtype":"noteOn"},{"deltaTime":0,"channel":0,"type":"channel","subtype":"noteOff","noteNumber":65,"velocity":0},{"deltaTime":240,"channel":0,"type":"channel","noteNumber":65,"velocity":80,"subtype":"noteOn"},{"deltaTime":0,"channel":0,"type":"channel","subtype":"noteOff","noteNumber":58,"velocity":0},{"deltaTime":240,"channel":0,"type":"channel","noteNumber":70,"velocity":80,"subtype":"noteOn"},{"deltaTime":0,"channel":0,"type":"channel","subtype":"noteOff","noteNumber":65,"velocity":0},{"deltaTime":240,"channel":0,"type":"channel","noteNumber":73,"velocity":80,"subtype":"noteOn"},{"deltaTime":0,"channel":0,"type":"channel","subtype":"noteOff","noteNumber":70,"velocity":0},{"deltaTime":240,"channel":0,"type":"channel","noteNumber":70,"velocity":80,"subtype":"noteOn"},{"deltaTime":0,"channel":0,"type":"channel","subtype":"noteOff","noteNumber":73,"velocity":0},{"deltaTime":240,"channel":0,"type":"channel","noteNumber":65,"velocity":80,"subtype":"noteOn"},{"deltaTime":0,"channel":0,"type":"channel","subtype":"noteOff","noteNumber":70,"velocity":0},{"deltaTime":240,"channel":0,"type":"channel","noteNumber":66,"velocity":80,"subtype":"noteOn"},{"deltaTime":0,"channel":0,"type":"channel","subtype":"noteOff","noteNumber":65,"velocity":0},{"deltaTime":240,"channel":0,"type":"channel","noteNumber":73,"velocity":80,"subtype":"noteOn"},{"deltaTime":0,"channel":0,"type":"channel","subtype":"noteOff","noteNumber":66,"velocity":0},{"deltaTime":240,"channel":0,"type":"channel","noteNumber":77,"velocity":80,"subtype":"noteOn"},{"deltaTime":0,"channel":0,"type":"channel","subtype":"noteOff","noteNumber":73,"velocity":0},{"deltaTime":240,"channel":0,"type":"channel","noteNumber":80,"velocity":80,"subtype":"noteOn"},{"deltaTime":0,"channel":0,"type":"channel","subtype":"noteOff","noteNumber":77,"velocity":0},{"deltaTime":240,"channel":0,"type":"channel","noteNumber":77,"velocity":80,"subtype":"noteOn"},{"deltaTime":0,"channel":0,"type":"channel","subtype":"noteOff","noteNumber":80,"velocity":0},{"deltaTime":240,"channel":0,"type":"channel","noteNumber":73,"velocity":80,"subtype":"noteOn"},{"deltaTime":0,"channel":0,"type":"channel","subtype":"noteOff","noteNumber":77,"velocity":0},{"deltaTime":240,"channel":0,"type":"channel","noteNumber":68,"velocity":80,"subtype":"noteOn"},{"deltaTime":0,"channel":0,"type":"channel","subtype":"noteOff","noteNumber":73,"velocity":0},{"deltaTime":240,"channel":0,"type":"channel","noteNumber":75,"velocity":80,"subtype":"noteOn"},{"deltaTime":0,"channel":0,"type":"channel","subtype":"noteOff","noteNumber":68,"velocity":0},{"deltaTime":240,"channel":0,"type":"channel","noteNumber":80,"velocity":80,"subtype":"noteOn"},{"deltaTime":0,"channel":0,"type":"channel","subtype":"noteOff","noteNumber":75,"velocity":0},{"deltaTime":240,"channel":0,"type":"channel","noteNumber":84,"velocity":80,"subtype":"noteOn"},{"deltaTime":0,"channel":0,"type":"channel","subtype":"noteOff","noteNumber":80,"velocity":0},{"deltaTime":240,"channel":0,"type":"channel","noteNumber":80,"velocity":80,"subtype":"noteOn"},{"deltaTime":0,"channel":0,"type":"channel","subtype":"noteOff","noteNumber":84,"velocity":0},{"deltaTime":240,"channel":0,"type":"channel","noteNumber":75,"velocity":80,"subtype":"noteOn"},{"deltaTime":0,"channel":0,"type":"channel","subtype":"noteOff","noteNumber":80,"velocity":0},{"deltaTime":240,"channel":0,"type":"channel","noteNumber":70,"velocity":80,"subtype":"noteOn"},{"deltaTime":0,"channel":0,"type":"channel","subtype":"noteOff","noteNumber":75,"velocity":0},{"deltaTime":240,"channel":0,"type":"channel","noteNumber":77,"velocity":80,"subtype":"noteOn"},{"deltaTime":0,"channel":0,"type":"channel","subtype":"noteOff","noteNumber":70,"velocity":0},{"deltaTime":240,"channel":0,"type":"channel","noteNumber":82,"velocity":80,"subtype":"noteOn"},{"deltaTime":0,"channel":0,"type":"channel","subtype":"noteOff","noteNumber":77,"velocity":0},{"deltaTime":240,"channel":0,"type":"channel","noteNumber":85,"velocity":80,"subtype":"noteOn"},{"deltaTime":0,"channel":0,"type":"channel","subtype":"noteOff","noteNumber":82,"velocity":0},{"deltaTime":240,"channel":0,"type":"channel","noteNumber":82,"velocity":80,"subtype":"noteOn"},{"deltaTime":0,"channel":0,"type":"channel","subtype":"noteOff","noteNumber":85,"velocity":0},{"deltaTime":240,"channel":0,"type":"channel","noteNumber":77,"velocity":80,"subtype":"noteOn"},{"deltaTime":0,"channel":0,"type":"channel","subtype":"noteOff","noteNumber":82,"velocity":0},{"deltaTime":240,"channel":0,"type":"channel","noteNumber":70,"velocity":80,"subtype":"noteOn"},{"deltaTime":0,"channel":0,"type":"channel","subtype":"noteOff","noteNumber":77,"velocity":0},{"deltaTime":240,"channel":0,"type":"channel","noteNumber":77,"velocity":80,"subtype":"noteOn"},{"deltaTime":0,"channel":0,"type":"channel","subtype":"noteOff","noteNumber":70,"velocity":0},{"deltaTime":240,"channel":0,"type":"channel","noteNumber":82,"velocity":80,"subtype":"noteOn"},{"deltaTime":0,"channel":0,"type":"channel","subtype":"noteOff","noteNumber":77,"velocity":0},{"deltaTime":240,"channel":0,"type":"channel","noteNumber":85,"velocity":80,"subtype":"noteOn"},{"deltaTime":0,"channel":0,"type":"channel","subtype":"noteOff","noteNumber":82,"velocity":0},{"deltaTime":240,"channel":0,"type":"channel","noteNumber":82,"velocity":80,"subtype":"noteOn"},{"deltaTime":0,"channel":0,"type":"channel","subtype":"noteOff","noteNumber":85,"velocity":0},{"deltaTime":240,"channel":0,"type":"channel","noteNumber":77,"velocity":80,"subtype":"noteOn"},{"deltaTime":0,"channel":0,"type":"channel","subtype":"noteOff","noteNumber":82,"velocity":0},{"deltaTime":240,"channel":0,"type":"channel","subtype":"noteOff","noteNumber":77,"velocity":0},{"deltaTime":0,"type":"meta","subtype":"endOfTrack"}]]}