{"header":{"formatType":0,"trackCount":1,"ticksPerBeat":480},"tracks":[[{"deltaTime":0,"type":"meta","subtype":"trackName","text":"Yamaha Grand Piano"},{"deltaTime":0,"type":"meta","subtype":"instrumentName","text":"Steinway Grand Piano"},{"deltaTime":0,"type":"meta","subtype":"keySignature","key":0,"scale":0},{"deltaTime":0,"type":"meta","subtype":"timeSignature","numerator":3,"denominator":4,"metronome":24,"thirtyseconds":8},{"deltaTime":0,"type":"meta","subtype":"smpteOffset","frameRate":25,"hour":1,"min":0,"sec":0,"frame":0,"subframe":0},{"deltaTime":0,"type":"meta","subtype":"setTempo","microsecondsPerBeat":800000},{"deltaTime":0,"channel":0,"type":"channel","noteNumber":42,"velocity":80,"subtype":"noteOn"},{"deltaTime":360,"channel":0,"type":"channel","noteNumber":42,"velocity":80,"subtype":"noteOn"},{"deltaTime":0,"channel":0,"type":"channel","subtype":"noteOff","noteNumber":42,"velocity":0},{"deltaTime":120,"channel":0,"type":"channel","noteNumber":42,"velocity":80,"subtype":"noteOn"},{"deltaTime":0,"channel":0,"type":"channel","subtype":"noteOff","noteNumber":42,"velocity":0},{"deltaTime":120,"channel":0,"type":"channel","subtype":"noteOff","noteNumber":42,"velocity":0},{"deltaTime":120,"channel":0,"type":"channel","noteNumber":44,"velocity":80,"subtype":"noteOn"},{"deltaTime":240,"channel":0,"type":"channel","noteNumber":42,"velocity":80,"subtype":"noteOn"},{"deltaTime":0,"channel":0,"type":"channel","subtype":"noteOff","noteNumber":44,"velocity":0},{"deltaTime":240,"channel":0,"type":"channel","noteNumber":41,"velocity":80,"subtype":"noteOn"},{"deltaTime":0,"channel":0,"type":"channel","subtype":"noteOff","noteNumber":42,"velocity":0},{"deltaTime":240,"channel":0,"type":"channel","noteNumber":37,"velocity":80,"subtype":"noteOn"},{"deltaTime":0,"channel":0,"type":"channel","subtype":"noteOff","noteNumber":41,"velocity":0},{"deltaTime":240,"channel":0,"type":"channel","subtype":"noteOff","noteNumber":37,"velocity":0},{"deltaTime":120,"channel":0,"type":"channel","noteNumber":37,"velocity":80,"subtype":"noteOn"},{"deltaTime":120,"channel":0,"type":"channel","noteNumber":37,"velocity":80,"subtype":"noteOn"},{"deltaTime":0,"channel":0,"type":"channel","subtype":"noteOff","noteNumber":37,"velocity":0},{"deltaTime":120,"channel":0,"type":"channel","subtype":"noteOff","noteNumber":37,"velocity":0},{"deltaTime":120,"channel":0,"type":"channel","noteNumber":39,"velocity":80,"subtype":"noteOn"},{"deltaTime":240,"channel":0,"type":"channel","noteNumber":37,"velocity":80,"subtype":"noteOn"},{"deltaTime":0,"channel":0,"type":"channel","subtype":"noteOff","noteNumber":39,"velocity":0},{"deltaTime":240,"channel":0,"type":"channel","noteNumber":36,"velocity":80,"subtype":"noteOn"},{"deltaTime":0,"channel":0,"type":"channel","subtype":"noteOff","noteNumber":37,"velocity":0},{"deltaTime":240,"channel":0,"type":"channel","noteNumber":34,"velocity":80,"subtype":"noteOn"},{"deltaTime":0,"channel":0,"type":"channel","subtype":"noteOff","noteNumber":36,"velocity":0},{"deltaTime":240,"channel":0,"type":"channel","subtype":"noteOff","noteNumber":34,"velocity":0},{"deltaTime":120,"channel":0,"type":"channel","noteNumber":34,"velocity":80,"subtype":"noteOn"},{"deltaTime":240,"channel":0,"type":"channel","subtype":"noteOff","noteNumber":34,"velocity":0},{"deltaTime":120,"channel":0,"type":"channel","noteNumber":34,"velocity":80,"subtype":"noteOn"},{"deltaTime":360,"channel":0,"type":"channel","subtype":"noteOff","noteNumber":34,"velocity":0},{"deltaTime":360,"channel":0,"type":"channel","noteNumber":34,"velocity":80,"subtype":"noteOn"},{"deltaTime":240,"channel":0,"type":"channel","subtype":"noteOff","noteNumber":34,"velocity":0},{"deltaTime":120,"channel":0,"type":"channel","noteNumber":41,"velocity":80,"subtype":"noteOn"},{"deltaTime":240,"channel":0,"type":"channel","subtype":"noteOff","noteNumber":41,"velocity":0},{"deltaTime":120,"channel":0,"type":"channel","noteNumber":39,"velocity":80,"subtype":"noteOn"},{"deltaTime":240,"channel":0,"type":"channel","noteNumber":42,"velocity":80,"subtype":"noteOn"},{"deltaTime":0,"channel":0,"type":"channel","subtype":"noteOff","noteNumber":39,"velocity":0},{"deltaTime":240,"channel":0,"type":"channel","noteNumber":41,"velocity":80,"subtype":"noteOn"},{"deltaTime":0,"channel":0,"type":"channel","subtype":"noteOff","noteNumber":42,"velocity":0},{"deltaTime":240,"channel":0,"type":"channel","noteNumber":42,"velocity":80,"subtype":"noteOn"},{"deltaTime":0,"channel":0,"type":"channel","subtype":"noteOff","noteNumber":41,"velocity":0},{"deltaTime":360,"channel":0,"type":"channel","noteNumber":42,"velocity":80,"subtype":"noteOn"},{"deltaTime":0,"channel":0,"type":"channel","subtype":"noteOff","noteNumber":42,"velocity":0},{"deltaTime":120,"channel":0,"type":"channel","noteNumber":42,"velocity":80,"subtype":"noteOn"},{"deltaTime":0,"channel":0,"type":"channel","subtype":"noteOff","noteNumber":42,"velocity":0},{"deltaTime":120,"channel":0,"type":"channel","subtype":"noteOff","noteNumber":42,"velocity":0},{"deltaTime":120,"channel":0,"type":"channel","noteNumber":44,"velocity":80,"subtype":"noteOn"},{"deltaTime":240,"channel":0,"type":"channel","noteNumber":42,"velocity":80,"subtype":"noteOn"},{"deltaTime":0,"channel":0,"type":"channel","subtype":"noteOff","noteNumber":44,"velocity":0},{"deltaTime":240,"channel":0,"type":"channel","noteNumber":41,"velocity":80,"subtype":"noteOn"},{"deltaTime":0,"channel":0,"type":"channel","subtype":"noteOff","noteNumber":42,"velocity":0},{"deltaTime":240,"channel":0,"type":"channel","noteNumber":32,"velocity":80,"subtype":"noteOn"},{"deltaTime":0,"channel":0,"type":"channel","subtype":"noteOff","noteNumber":41,"velocity":0},{"deltaTime":240,"channel":0,"type":"channel","subtype":"noteOff","noteNumber":32,"velocity":0},{"deltaTime":120,"channel":0,"type":"channel","noteNumber":32,"velocity":80,"subtype":"noteOn"},{"deltaTime":120,"channel":0,"type":"channel","noteNumber":32,"velocity":80,"subtype":"noteOn"},{"deltaTime":0,"channel":0,"type":"channel","subtype":"noteOff","noteNumber":32,"velocity":0},{"deltaTime":120,"channel":0,"type":"channel","subtype":"noteOff","noteNumber":32,"velocity":0},{"deltaTime":120,"channel":0,"type":"channel","noteNumber":36,"velocity":80,"subtype":"noteOn"},{"deltaTime":240,"channel":0,"type":"channel","noteNumber":32,"velocity":80,"subtype":"noteOn"},{"deltaTime":0,"channel":0,"type":"channel","subtype":"noteOff","noteNumber":36,"velocity":0},{"deltaTime":240,"channel":0,"type":"channel","noteNumber":36,"velocity":80,"subtype":"noteOn"},{"deltaTime":0,"channel":0,"type":"channel","subtype":"noteOff","noteNumber":32,"velocity":0},{"deltaTime":240,"channel":0,"type":"channel","noteNumber":34,"velocity":80,"subtype":"noteOn"},{"deltaTime":0,"channel":0,"type":"channel","subtype":"noteOff","noteNumber":36,"velocity":0},{"deltaTime":240,"channel":0,"type":"channel","subtype":"noteOff","noteNumber":34,"velocity":0},{"deltaTime":120,"channel":0,"type":"channel","noteNumber":34,"velocity":80,"subtype":"noteOn"},{"deltaTime":240,"channel":0,"type":"channel","subtype":"noteOff","noteNumber":34,"velocity":0},{"deltaTime":120,"channel":0,"type":"channel","noteNumber":34,"velocity":80,"subtype":"noteOn"},{"deltaTime":360,"channel":0,"type":"channel","subtype":"noteOff","noteNumber":34,"velocity":0},{"deltaTime":360,"channel":0,"type":"channel","noteNumber":34,"velocity":80,"subtype":"noteOn"},{"deltaTime":240,"channel":0,"type":"channel","subtype":"noteOff","noteNumber":34,"velocity":0},{"deltaTime":120,"channel":0,"type":"channel","noteNumber":41,"velocity":80,"subtype":"noteOn"},{"deltaTime":240,"channel":0,"type":"channel","subtype":"noteOff","noteNumber":41,"velocity":0},{"deltaTime":120,"channel":0,"type":"channel","noteNumber":39,"velocity":80,"subtype":"noteOn"},{"deltaTime":240,"channel":0,"type":"channel","noteNumber":42,"velocity":80,"subtype":"noteOn"},{"deltaTime":0,"channel":0,"type":"channel","subtype":"noteOff","noteNumber":39,"velocity":0},{"deltaTime":240,"channel":0,"type":"channel","noteNumber":41,"velocity":80,"subtype":"noteOn"},{"deltaTime":0,"channel":0,"type":"channel","subtype":"noteOff","noteNumber":42,"velocity":0},{"deltaTime":240,"channel":0,"type":"channel","subtype":"noteOff","noteNumber":41,"velocity":0},{"deltaTime":0,"type":"meta","subtype":"endOfTrack"}]]}