{"header":{"formatType":0,"trackCount":1,"ticksPerBeat":480},"tracks":[[{"deltaTime":0,"type":"meta","subtype":"trackName","text":"8-bit Square"},{"deltaTime":0,"type":"meta","subtype":"instrumentName","text":"8-bit Twinkle High"},{"deltaTime":0,"type":"meta","subtype":"keySignature","key":0,"scale":0},{"deltaTime":0,"type":"meta","subtype":"timeSignature","numerator":3,"denominator":4,"metronome":24,"thirtyseconds":8},{"deltaTime":0,"type":"meta","subtype":"smpteOffset","frameRate":25,"hour":1,"min":0,"sec":0,"frame":0,"subframe":0},{"deltaTime":0,"type":"meta","subtype":"setTempo","microsecondsPerBeat":800000},{"deltaTime":0,"channel":0,"type":"channel","noteNumber":58,"velocity":80,"subtype":"noteOn"},{"deltaTime":480,"channel":0,"type":"channel","subtype":"noteOff","noteNumber":58,"velocity":0},{"deltaTime":240,"channel":0,"type":"channel","noteNumber":61,"velocity":80,"subtype":"noteOn"},{"deltaTime":480,"channel":0,"type":"channel","subtype":"noteOff","noteNumber":61,"velocity":0},{"deltaTime":240,"channel":0,"type":"channel","noteNumber":60,"velocity":80,"subtype":"noteOn"},{"deltaTime":240,"channel":0,"type":"channel","noteNumber":61,"velocity":80,"subtype":"noteOn"},{"deltaTime":0,"channel":0,"type":"channel","subtype":"noteOff","noteNumber":60,"velocity":0},{"deltaTime":240,"channel":0,"type":"channel","noteNumber":63,"velocity":80,"subtype":"noteOn"},{"deltaTime":0,"channel":0,"type":"channel","subtype":"noteOff","noteNumber":61,"velocity":0},{"deltaTime":240,"channel":0,"type":"channel","noteNumber":61,"velocity":80,"subtype":"noteOn"},{"deltaTime":0,"channel":0,"type":"channel","subtype":"noteOff","noteNumber":63,"velocity":0},{"deltaTime":240,"channel":0,"type":"channel","noteNumber":60,"velocity":80,"subtype":"noteOn"},{"deltaTime":0,"channel":0,"type":"channel","subtype":"noteOff","noteNumber":61,"velocity":0},{"deltaTime":240,"channel":0,"type":"channel","noteNumber":56,"velocity":80,"subtype":"noteOn"},{"deltaTime":0,"channel":0,"type":"channel","subtype":"noteOff","noteNumber":60,"velocity":0},{"deltaTime":240,"channel":0,"type":"channel","noteNumber":58,"velocity":80,"subtype":"noteOn"},{"deltaTime":0,"channel":0,"type":"channel","subtype":"noteOff","noteNumber":56,"velocity":0},{"deltaTime":480,"channel":0,"type":"channel","subtype":"noteOff","noteNumber":58,"velocity":0},{"deltaTime":240,"channel":0,"type":"channel","noteNumber":61,"velocity":80,"subtype":"noteOn"},{"deltaTime":480,"channel":0,"type":"channel","subtype":"noteOff","noteNumber":61,"velocity":0},{"deltaTime":1680,"channel":0,"type":"channel","noteNumber":58,"velocity":80,"subtype":"noteOn"},{"deltaTime":480,"channel":0,"type":"channel","subtype":"noteOff","noteNumber":58,"velocity":0},{"deltaTime":240,"channel":0,"type":"channel","noteNumber":61,"velocity":80,"subtype":"noteOn"},{"deltaTime":480,"channel":0,"type":"channel","subtype":"noteOff","noteNumber":61,"velocity":0},{"deltaTime":240,"channel":0,"type":"channel","noteNumber":63,"velocity":80,"subtype":"noteOn"},{"deltaTime":480,"channel":0,"type":"channel","subtype":"noteOff","noteNumber":63,"velocity":0},{"deltaTime":0,"channel":0,"type":"channel","noteNumber":61,"velocity":80,"subtype":"noteOn"},{"deltaTime":240,"channel":0,"type":"channel","noteNumber":60,"velocity":80,"subtype":"noteOn"},{"deltaTime":0,"channel":0,"type":"channel","subtype":"noteOff","noteNumber":61,"velocity":0},{"deltaTime":240,"channel":0,"type":"channel","noteNumber":58,"velocity":80,"subtype":"noteOn"},{"deltaTime":0,"channel":0,"type":"channel","subtype":"noteOff","noteNumber":60,"velocity":0},{"deltaTime":240,"channel":0,"type":"channel","noteNumber":56,"velocity":80,"subtype":"noteOn"},{"deltaTime":0,"channel":0,"type":"channel","subtype":"noteOff","noteNumber":58,"velocity":0},{"deltaTime":240,"channel":0,"type":"channel","noteNumber":58,"velocity":80,"subtype":"noteOn"},{"deltaTime":0,"channel":0,"type":"channel","subtype":"noteOff","noteNumber":56,"velocity":0},{"deltaTime":480,"channel":0,"type":"channel","subtype":"noteOff","noteNumber":58,"velocity":0},{"deltaTime":240,"channel":0,"type":"channel","noteNumber":61,"velocity":80,"subtype":"noteOn"},{"deltaTime":480,"channel":0,"type":"channel","subtype":"noteOff","noteNumber":61,"velocity":0},{"deltaTime":1680,"channel":0,"type":"channel","noteNumber":61,"velocity":80,"subtype":"noteOn"},{"deltaTime":240,"channel":0,"type":"channel","noteNumber":60,"velocity":80,"subtype":"noteOn"},{"deltaTime":0,"channel":0,"type":"channel","subtype":"noteOff","noteNumber":61,"velocity":0},{"deltaTime":240,"channel":0,"type":"channel","subtype":"noteOff","noteNumber":60,"velocity":0},{"deltaTime":0,"channel":0,"type":"channel","noteNumber":58,"velocity":80,"subtype":"noteOn"},{"deltaTime":240,"channel":0,"type":"channel","subtype":"noteOff","noteNumber":58,"velocity":0},{"deltaTime":0,"channel":0,"type":"channel","noteNumber":56,"velocity":80,"subtype":"noteOn"},{"deltaTime":240,"channel":0,"type":"channel","subtype":"noteOff","noteNumber":56,"velocity":0},{"deltaTime":0,"channel":0,"type":"channel","noteNumber":53,"velocity":80,"subtype":"noteOn"},{"deltaTime":240,"channel":0,"type":"channel","subtype":"noteOff","noteNumber":53,"velocity":0},{"deltaTime":0,"channel":0,"type":"channel","noteNumber":51,"velocity":80,"subtype":"noteOn"},{"deltaTime":240,"channel":0,"type":"channel","subtype":"noteOff","noteNumber":51,"velocity":0},{"deltaTime":0,"channel":0,"type":"channel","noteNumber":49,"velocity":80,"subtype":"noteOn"},{"deltaTime":240,"channel":0,"type":"channel","subtype":"noteOff","noteNumber":49,"velocity":0},{"deltaTime":0,"channel":0,"type":"channel","noteNumber":51,"velocity":80,"subtype":"noteOn"},{"deltaTime":240,"channel":0,"type":"channel","subtype":"noteOff","noteNumber":51,"velocity":0},{"deltaTime":0,"channel":0,"type":"channel","noteNumber":56,"velocity":80,"subtype":"noteOn"},{"deltaTime":240,"channel":0,"type":"channel","subtype":"noteOff","noteNumber":56,"velocity":0},{"deltaTime":0,"channel":0,"type":"channel","noteNumber":53,"velocity":80,"subtype":"noteOn"},{"deltaTime":240,"channel":0,"type":"channel","subtype":"noteOff","noteNumber":53,"velocity":0},{"deltaTime":0,"channel":0,"type":"channel","noteNumber":51,"velocity":80,"subtype":"noteOn"},{"deltaTime":240,"channel":0,"type":"channel","subtype":"noteOff","noteNumber":51,"velocity":0},{"deltaTime":0,"channel":0,"type":"channel","noteNumber":49,"velocity":80,"subtype":"noteOn"},{"deltaTime":240,"channel":0,"type":"channel","subtype":"noteOff","noteNumber":49,"velocity":0},{"deltaTime":0,"channel":0,"type":"channel","noteNumber":46,"velocity":80,"subtype":"noteOn"},{"deltaTime":360,"channel":0,"type":"channel","subtype":"noteOff","noteNumber":46,"velocity":0},{"deltaTime":120,"channel":0,"type":"channel","noteNumber":51,"velocity":80,"subtype":"noteOn"},{"deltaTime":240,"channel":0,"type":"channel","subtype":"noteOff","noteNumber":51,"velocity":0},{"deltaTime":0,"channel":0,"type":"channel","noteNumber":53,"velocity":80,"subtype":"noteOn"},{"deltaTime":240,"channel":0,"type":"channel","subtype":"noteOff","noteNumber":53,"velocity":0},{"deltaTime":0,"channel":0,"type":"channel","noteNumber":51,"velocity":80,"subtype":"noteOn"},{"deltaTime":240,"channel":0,"type":"channel","subtype":"noteOff","noteNumber":51,"velocity":0},{"deltaTime":0,"channel":0,"type":"channel","noteNumber":49,"velocity":80,"subtype":"noteOn"},{"deltaTime":240,"channel":0,"type":"channel","subtype":"noteOff","noteNumber":49,"velocity":0},{"deltaTime":0,"channel":0,"type":"channel","noteNumber":46,"velocity":80,"subtype":"noteOn"},{"deltaTime":480,"channel":0,"type":"channel","subtype":"noteOff","noteNumber":46,"velocity":0},{"deltaTime":960,"channel":0,"type":"channel","noteNumber":61,"velocity":80,"subtype":"noteOn"},{"deltaTime":240,"channel":0,"type":"channel","noteNumber":60,"velocity":80,"subtype":"noteOn"},{"deltaTime":0,"channel":0,"type":"channel","subtype":"noteOff","noteNumber":61,"velocity":0},{"deltaTime":240,"channel":0,"type":"channel","subtype":"noteOff","noteNumber":60,"velocity":0},{"deltaTime":0,"channel":0,"type":"channel","noteNumber":56,"velocity":80,"subtype":"noteOn"},{"deltaTime":240,"channel":0,"type":"channel","subtype":"noteOff","noteNumber":56,"velocity":0},{"deltaTime":0,"channel":0,"type":"channel","noteNumber":58,"velocity":80,"subtype":"noteOn"},{"deltaTime":240,"channel":0,"type":"channel","subtype":"noteOff","noteNumber":58,"velocity":0},{"deltaTime":0,"channel":0,"type":"channel","noteNumber":53,"velocity":80,"subtype":"noteOn"},{"deltaTime":240,"channel":0,"type":"channel","subtype":"noteOff","noteNumber":53,"velocity":0},{"deltaTime":0,"channel":0,"type":"channel","noteNumber":51,"velocity":80,"subtype":"noteOn"},{"deltaTime":240,"channel":0,"type":"channel","subtype":"noteOff","noteNumber":51,"velocity":0},{"deltaTime":0,"channel":0,"type":"channel","noteNumber":49,"velocity":80,"subtype":"noteOn"},{"deltaTime":240,"channel":0,"type":"channel","subtype":"noteOff","noteNumber":49,"velocity":0},{"deltaTime":0,"channel":0,"type":"channel","noteNumber":51,"velocity":80,"subtype":"noteOn"},{"deltaTime":240,"channel":0,"type":"channel","subtype":"noteOff","noteNumber":51,"velocity":0},{"deltaTime":0,"channel":0,"type":"channel","noteNumber":56,"velocity":80,"subtype":"noteOn"},{"deltaTime":240,"channel":0,"type":"channel","subtype":"noteOff","noteNumber":56,"velocity":0},{"deltaTime":0,"channel":0,"type":"channel","noteNumber":53,"velocity":80,"subtype":"noteOn"},{"deltaTime":240,"channel":0,"type":"channel","subtype":"noteOff","noteNumber":53,"velocity":0},{"deltaTime":0,"channel":0,"type":"channel","noteNumber":56,"velocity":80,"subtype":"noteOn"},{"deltaTime":240,"channel":0,"type":"channel","subtype":"noteOff","noteNumber":56,"velocity":0},{"deltaTime":0,"channel":0,"type":"channel","noteNumber":60,"velocity":80,"subtype":"noteOn"},{"deltaTime":240,"channel":0,"type":"channel","subtype":"noteOff","noteNumber":60,"velocity":0},{"deltaTime":0,"channel":0,"type":"channel","noteNumber":58,"velocity":80,"subtype":"noteOn"},{"deltaTime":480,"channel":0,"type":"channel","subtype":"noteOff","noteNumber":58,"velocity":0},{"deltaTime":480,"channel":0,"type":"channel","noteNumber":51,"velocity":80,"subtype":"noteOn"},{"deltaTime":240,"channel":0,"type":"channel","subtype":"noteOff","noteNumber":51,"velocity":0},{"deltaTime":0,"channel":0,"type":"channel","noteNumber":53,"velocity":80,"subtype":"noteOn"},{"deltaTime":240,"channel":0,"type":"channel","subtype":"noteOff","noteNumber":53,"velocity":0},{"deltaTime":0,"channel":0,"type":"channel","noteNumber":51,"velocity":80,"subtype":"noteOn"},{"deltaTime":240,"channel":0,"type":"channel","subtype":"noteOff","noteNumber":51,"velocity":0},{"deltaTime":0,"channel":0,"type":"channel","noteNumber":49,"velocity":80,"subtype":"noteOn"},{"deltaTime":240,"channel":0,"type":"channel","subtype":"noteOff","noteNumber":49,"velocity":0},{"deltaTime":0,"channel":0,"type":"channel","noteNumber":46,"velocity":80,"subtype":"noteOn"},{"deltaTime":240,"channel":0,"type":"channel","subtype":"noteOff","noteNumber":46,"velocity":0},{"deltaTime":0,"channel":0,"type":"channel","noteNumber":49,"velocity":80,"subtype":"noteOn"},{"deltaTime":240,"channel":0,"type":"channel","subtype":"noteOff","noteNumber":49,"velocity":0},{"deltaTime":0,"channel":0,"type":"channel","noteNumber":46,"velocity":80,"subtype":"noteOn"},{"deltaTime":360,"channel":0,"type":"channel","subtype":"noteOff","noteNumber":46,"velocity":0},{"deltaTime":0,"type":"meta","subtype":"endOfTrack"}]]}